<svg xmlns="http://www.w3.org/2000/svg" width="20.182" height="20.762" viewBox="0 0 20.182 20.762"><g transform="translate(-6.675)"><path d="M26.252,14.115a2.579,2.579,0,0,0,.6-1.724,2.648,2.648,0,0,0-.564-1.494,2.32,2.32,0,0,0-.551-2.67,4.794,4.794,0,0,0-3.486-.834,13.625,13.625,0,0,0-2.136.274h0c-.217.039-.447.087-.682.139a7.574,7.574,0,0,1,.543-2.523c.608-1.85.573-3.265-.113-4.211A2.76,2.76,0,0,0,17.651,0a1.09,1.09,0,0,0-.838.382,2.921,2.921,0,0,0-.365,2.071C15.875,3.99,14.269,7.759,12.91,8.8a.465.465,0,0,0-.069.061,4.664,4.664,0,0,0-.851,1.276,1.792,1.792,0,0,0-.86-.217H8.481a1.808,1.808,0,0,0-1.806,1.806v7.055a1.808,1.808,0,0,0,1.806,1.806h2.648a1.8,1.8,0,0,0,1.042-.33l1.02.122a43.714,43.714,0,0,0,5.787.317c.517.039,1,.061,1.454.061a9.742,9.742,0,0,0,2.019-.182,3.775,3.775,0,0,0,2.7-1.676,2.657,2.657,0,0,0,.3-1.663,2.769,2.769,0,0,0,.986-2.253A2.933,2.933,0,0,0,26.252,14.115ZM8.481,19.42a.635.635,0,0,1-.634-.634v-7.06a.635.635,0,0,1,.634-.634H11.13a.635.635,0,0,1,.634.634v7.055a.635.635,0,0,1-.634.634H8.481ZM25.14,13.607a.583.583,0,0,0-.078.708,1.806,1.806,0,0,1,.2.725,1.737,1.737,0,0,1-.816,1.5.592.592,0,0,0-.2.669,1.533,1.533,0,0,1-.117,1.12,2.716,2.716,0,0,1-1.919,1.1,11.438,11.438,0,0,1-3.165.1h-.061a42.856,42.856,0,0,1-5.644-.308h0l-.439-.052a1.84,1.84,0,0,0,.039-.382v-7.06a1.837,1.837,0,0,0-.082-.538A3.629,3.629,0,0,1,13.661,9.7c1.949-1.546,3.855-6.76,3.938-6.986a.55.55,0,0,0,.026-.291,2.713,2.713,0,0,1,.056-1.259,1.558,1.558,0,0,1,1.224.586c.443.612.425,1.706-.052,3.156-.729,2.21-.79,3.373-.213,3.886a.946.946,0,0,0,.946.169c.265-.061.517-.113.755-.152L20.4,8.8c1.333-.291,3.721-.469,4.55.287a1.249,1.249,0,0,1,.148,1.585.581.581,0,0,0,.1.755,1.645,1.645,0,0,1,.482,1.012A1.612,1.612,0,0,1,25.14,13.607Z" fill="#ea8604"/></g></svg>