<svg width="413" height="44" viewBox="0 0 413 44" fill="none" xmlns="http://www.w3.org/2000/svg">
<path d="M0.96 0.0399988H9.54L16.2 25.12L17.16 29.74H17.64L18.9 25.12L25.08 5.8H32.64L38.88 25.12L40.08 29.68H40.56L41.46 25.12L47.7 0.0399988H56.28L44.88 43H37.08L30.36 22.3L29.1 17.56H28.62L27.36 22.3L20.64 43H12.84L0.96 0.0399988ZM85.1648 35.92C83.8048 38.32 81.9648 40.26 79.6448 41.74C77.3648 43.22 74.5648 43.96 71.2448 43.96C69.0048 43.96 66.9248 43.58 65.0048 42.82C63.1248 42.02 61.4848 40.92 60.0848 39.52C58.6848 38.12 57.5848 36.48 56.7848 34.6C56.0248 32.68 55.6448 30.58 55.6448 28.3C55.6448 26.18 56.0248 24.18 56.7848 22.3C57.5448 20.38 58.6048 18.72 59.9648 17.32C61.3248 15.88 62.9248 14.74 64.7648 13.9C66.6448 13.06 68.7048 12.64 70.9448 12.64C73.3048 12.64 75.4048 13.04 77.2448 13.84C79.0848 14.6 80.6248 15.68 81.8648 17.08C83.1048 18.44 84.0448 20.06 84.6848 21.94C85.3248 23.82 85.6448 25.86 85.6448 28.06C85.6448 28.34 85.6448 28.58 85.6448 28.78C85.6048 29.02 85.5848 29.24 85.5848 29.44C85.5448 29.64 85.5248 29.86 85.5248 30.1H63.3848C63.5448 31.3 63.8648 32.34 64.3448 33.22C64.8648 34.06 65.4848 34.78 66.2048 35.38C66.9648 35.94 67.7848 36.36 68.6648 36.64C69.5448 36.88 70.4448 37 71.3648 37C73.1648 37 74.6448 36.6 75.8048 35.8C77.0048 34.96 77.9448 33.92 78.6248 32.68L85.1648 35.92ZM78.0248 24.52C77.9848 24 77.8048 23.42 77.4848 22.78C77.2048 22.14 76.7648 21.54 76.1648 20.98C75.6048 20.42 74.8848 19.96 74.0048 19.6C73.1648 19.24 72.1448 19.06 70.9448 19.06C69.2648 19.06 67.7848 19.54 66.5048 20.5C65.2248 21.46 64.3248 22.8 63.8048 24.52H78.0248ZM90.6647 43V0.0399988H98.5247V43H90.6647ZM132.862 35.5C131.582 37.98 129.782 40.02 127.462 41.62C125.182 43.18 122.322 43.96 118.882 43.96C116.602 43.96 114.502 43.58 112.582 42.82C110.702 42.02 109.062 40.92 107.662 39.52C106.302 38.12 105.222 36.48 104.422 34.6C103.662 32.68 103.282 30.58 103.282 28.3C103.282 26.02 103.662 23.92 104.422 22C105.222 20.08 106.302 18.44 107.662 17.08C109.062 15.68 110.702 14.6 112.582 13.84C114.502 13.04 116.602 12.64 118.882 12.64C122.282 12.64 125.142 13.42 127.462 14.98C129.782 16.54 131.482 18.56 132.562 21.04L125.362 24.04C124.682 22.68 123.802 21.66 122.722 20.98C121.682 20.26 120.362 19.9 118.762 19.9C117.722 19.9 116.742 20.1 115.822 20.5C114.902 20.9 114.082 21.46 113.362 22.18C112.682 22.9 112.142 23.78 111.742 24.82C111.342 25.86 111.142 27.02 111.142 28.3C111.142 29.58 111.342 30.74 111.742 31.78C112.142 32.82 112.682 33.7 113.362 34.42C114.082 35.14 114.902 35.7 115.822 36.1C116.742 36.5 117.722 36.7 118.762 36.7C120.402 36.7 121.782 36.34 122.902 35.62C124.062 34.86 124.982 33.78 125.662 32.38L132.862 35.5ZM151.284 12.64C153.564 12.64 155.644 13.04 157.524 13.84C159.444 14.6 161.084 15.68 162.444 17.08C163.844 18.44 164.924 20.08 165.684 22C166.484 23.92 166.884 26.02 166.884 28.3C166.884 30.58 166.484 32.68 165.684 34.6C164.924 36.52 163.844 38.18 162.444 39.58C161.084 40.94 159.444 42.02 157.524 42.82C155.644 43.58 153.564 43.96 151.284 43.96C149.004 43.96 146.904 43.58 144.984 42.82C143.104 42.02 141.464 40.94 140.064 39.58C138.704 38.18 137.624 36.52 136.824 34.6C136.064 32.68 135.684 30.58 135.684 28.3C135.684 26.02 136.064 23.92 136.824 22C137.624 20.08 138.704 18.44 140.064 17.08C141.464 15.68 143.104 14.6 144.984 13.84C146.904 13.04 149.004 12.64 151.284 12.64ZM151.284 36.7C152.284 36.7 153.244 36.52 154.164 36.16C155.124 35.76 155.964 35.2 156.684 34.48C157.404 33.76 157.964 32.88 158.364 31.84C158.804 30.8 159.024 29.62 159.024 28.3C159.024 26.98 158.804 25.8 158.364 24.76C157.964 23.72 157.404 22.84 156.684 22.12C155.964 21.4 155.124 20.86 154.164 20.5C153.244 20.1 152.284 19.9 151.284 19.9C150.244 19.9 149.264 20.1 148.344 20.5C147.424 20.86 146.604 21.4 145.884 22.12C145.164 22.84 144.584 23.72 144.144 24.76C143.744 25.8 143.544 26.98 143.544 28.3C143.544 29.62 143.744 30.8 144.144 31.84C144.584 32.88 145.164 33.76 145.884 34.48C146.604 35.2 147.424 35.76 148.344 36.16C149.264 36.52 150.244 36.7 151.284 36.7ZM171.348 13.6H178.728V17.44H179.208C180.128 16 181.368 14.84 182.928 13.96C184.528 13.08 186.288 12.64 188.208 12.64C190.448 12.64 192.328 13.16 193.848 14.2C195.368 15.24 196.448 16.52 197.088 18.04C198.008 16.56 199.308 15.3 200.988 14.26C202.668 13.18 204.708 12.64 207.108 12.64C208.908 12.64 210.468 12.94 211.788 13.54C213.108 14.1 214.188 14.9 215.028 15.94C215.908 16.98 216.568 18.24 217.008 19.72C217.448 21.16 217.668 22.74 217.668 24.46V43H209.808V25.9C209.808 21.9 208.168 19.9 204.888 19.9C203.848 19.9 202.928 20.14 202.128 20.62C201.328 21.06 200.648 21.68 200.088 22.48C199.568 23.24 199.148 24.16 198.828 25.24C198.548 26.32 198.408 27.48 198.408 28.72V43H190.548V25.9C190.548 21.9 188.828 19.9 185.388 19.9C184.388 19.9 183.508 20.14 182.748 20.62C181.988 21.06 181.348 21.68 180.828 22.48C180.308 23.24 179.908 24.16 179.628 25.24C179.348 26.32 179.208 27.48 179.208 28.72V43H171.348V13.6ZM251.981 35.92C250.621 38.32 248.781 40.26 246.461 41.74C244.181 43.22 241.381 43.96 238.061 43.96C235.821 43.96 233.741 43.58 231.821 42.82C229.941 42.02 228.301 40.92 226.901 39.52C225.501 38.12 224.401 36.48 223.601 34.6C222.841 32.68 222.461 30.58 222.461 28.3C222.461 26.18 222.841 24.18 223.601 22.3C224.361 20.38 225.421 18.72 226.781 17.32C228.141 15.88 229.741 14.74 231.581 13.9C233.461 13.06 235.521 12.64 237.761 12.64C240.121 12.64 242.221 13.04 244.061 13.84C245.901 14.6 247.441 15.68 248.681 17.08C249.921 18.44 250.861 20.06 251.501 21.94C252.141 23.82 252.461 25.86 252.461 28.06C252.461 28.34 252.461 28.58 252.461 28.78C252.421 29.02 252.401 29.24 252.401 29.44C252.361 29.64 252.341 29.86 252.341 30.1H230.201C230.361 31.3 230.681 32.34 231.161 33.22C231.681 34.06 232.301 34.78 233.021 35.38C233.781 35.94 234.601 36.36 235.481 36.64C236.361 36.88 237.261 37 238.181 37C239.981 37 241.461 36.6 242.621 35.8C243.821 34.96 244.761 33.92 245.441 32.68L251.981 35.92ZM244.841 24.52C244.801 24 244.621 23.42 244.301 22.78C244.021 22.14 243.581 21.54 242.981 20.98C242.421 20.42 241.701 19.96 240.821 19.6C239.981 19.24 238.961 19.06 237.761 19.06C236.081 19.06 234.601 19.54 233.321 20.5C232.041 21.46 231.141 22.8 230.621 24.52H244.841ZM270.665 0.0399988H278.525V12.94L278.045 17.14H278.525C279.245 15.9 280.365 14.84 281.885 13.96C283.405 13.08 285.285 12.64 287.525 12.64C289.405 12.64 291.185 13.04 292.865 13.84C294.585 14.6 296.085 15.68 297.365 17.08C298.685 18.44 299.725 20.08 300.485 22C301.245 23.92 301.625 26.02 301.625 28.3C301.625 30.58 301.245 32.68 300.485 34.6C299.725 36.52 298.685 38.18 297.365 39.58C296.085 40.94 294.585 42.02 292.865 42.82C291.185 43.58 289.405 43.96 287.525 43.96C285.285 43.96 283.405 43.52 281.885 42.64C280.365 41.76 279.245 40.7 278.525 39.46H278.045V43H270.665V0.0399988ZM285.905 36.7C286.945 36.7 287.925 36.5 288.845 36.1C289.805 35.7 290.645 35.14 291.365 34.42C292.085 33.7 292.665 32.82 293.105 31.78C293.545 30.74 293.765 29.58 293.765 28.3C293.765 27.02 293.545 25.86 293.105 24.82C292.665 23.78 292.085 22.9 291.365 22.18C290.645 21.46 289.805 20.9 288.845 20.5C287.925 20.1 286.945 19.9 285.905 19.9C284.865 19.9 283.865 20.1 282.905 20.5C281.985 20.86 281.165 21.4 280.445 22.12C279.725 22.84 279.145 23.72 278.705 24.76C278.265 25.8 278.045 26.98 278.045 28.3C278.045 29.62 278.265 30.8 278.705 31.84C279.145 32.88 279.725 33.76 280.445 34.48C281.165 35.2 281.985 35.76 282.905 36.16C283.865 36.52 284.865 36.7 285.905 36.7ZM324.761 39.88H324.281C323.361 41 322.241 41.96 320.921 42.76C319.641 43.56 317.981 43.96 315.941 43.96C314.421 43.96 312.981 43.7 311.621 43.18C310.301 42.7 309.141 42.02 308.141 41.14C307.141 40.26 306.361 39.2 305.801 37.96C305.241 36.72 304.961 35.36 304.961 33.88C304.961 32.36 305.261 31 305.861 29.8C306.461 28.56 307.301 27.5 308.381 26.62C309.461 25.74 310.721 25.08 312.161 24.64C313.641 24.16 315.241 23.92 316.961 23.92C318.881 23.92 320.461 24.08 321.701 24.4C322.941 24.68 323.961 24.98 324.761 25.3V24.4C324.761 22.84 324.141 21.56 322.901 20.56C321.661 19.52 320.121 19 318.281 19C315.561 19 313.261 20.14 311.381 22.42L305.681 18.52C308.801 14.6 313.061 12.64 318.461 12.64C323.021 12.64 326.501 13.72 328.901 15.88C331.301 18 332.501 21.16 332.501 25.36V43H324.761V39.88ZM324.761 31.06C323.841 30.62 322.881 30.28 321.881 30.04C320.921 29.76 319.861 29.62 318.701 29.62C316.821 29.62 315.361 30.04 314.321 30.88C313.321 31.68 312.821 32.68 312.821 33.88C312.821 35.08 313.301 36.04 314.261 36.76C315.261 37.48 316.401 37.84 317.681 37.84C318.721 37.84 319.681 37.66 320.561 37.3C321.441 36.9 322.181 36.4 322.781 35.8C323.421 35.16 323.901 34.44 324.221 33.64C324.581 32.8 324.761 31.94 324.761 31.06ZM366.358 35.5C365.078 37.98 363.278 40.02 360.958 41.62C358.678 43.18 355.818 43.96 352.378 43.96C350.098 43.96 347.998 43.58 346.078 42.82C344.198 42.02 342.558 40.92 341.158 39.52C339.798 38.12 338.718 36.48 337.918 34.6C337.158 32.68 336.778 30.58 336.778 28.3C336.778 26.02 337.158 23.92 337.918 22C338.718 20.08 339.798 18.44 341.158 17.08C342.558 15.68 344.198 14.6 346.078 13.84C347.998 13.04 350.098 12.64 352.378 12.64C355.778 12.64 358.638 13.42 360.958 14.98C363.278 16.54 364.978 18.56 366.058 21.04L358.858 24.04C358.178 22.68 357.298 21.66 356.218 20.98C355.178 20.26 353.858 19.9 352.258 19.9C351.218 19.9 350.238 20.1 349.318 20.5C348.398 20.9 347.578 21.46 346.858 22.18C346.178 22.9 345.638 23.78 345.238 24.82C344.838 25.86 344.638 27.02 344.638 28.3C344.638 29.58 344.838 30.74 345.238 31.78C345.638 32.82 346.178 33.7 346.858 34.42C347.578 35.14 348.398 35.7 349.318 36.1C350.238 36.5 351.218 36.7 352.258 36.7C353.898 36.7 355.278 36.34 356.398 35.62C357.558 34.86 358.478 33.78 359.158 32.38L366.358 35.5ZM371.153 0.0399988H379.013V23.44H379.373L389.213 13.6H398.933V14.08L388.013 24.7L399.833 42.52V43H390.533L382.493 30.1L379.013 33.52V43H371.153V0.0399988ZM407.709 43.36C406.269 43.36 405.029 42.86 403.989 41.86C402.989 40.82 402.489 39.58 402.489 38.14C402.489 36.7 402.989 35.48 403.989 34.48C405.029 33.48 406.269 32.98 407.709 32.98C409.149 32.98 410.369 33.48 411.369 34.48C412.369 35.48 412.869 36.7 412.869 38.14C412.869 39.58 412.369 40.82 411.369 41.86C410.369 42.86 409.149 43.36 407.709 43.36ZM403.629 12.4V0.0399988H411.729V12.4L410.889 28.24H404.469L403.629 12.4Z" fill="black"/>
</svg>
