<svg width="123" height="26" viewBox="0 0 123 26" fill="none" xmlns="http://www.w3.org/2000/svg">
<path d="M0.872 0.383999H4.382V15.672H12.26V19H0.872V0.383999ZM20.3767 5.844C21.3647 5.844 22.266 6.01733 23.0807 6.364C23.9127 6.69333 24.6233 7.16133 25.2127 7.768C25.8193 8.35733 26.2873 9.068 26.6167 9.9C26.9633 10.732 27.1367 11.642 27.1367 12.63C27.1367 13.618 26.9633 14.528 26.6167 15.36C26.2873 16.192 25.8193 16.9113 25.2127 17.518C24.6233 18.1073 23.9127 18.5753 23.0807 18.922C22.266 19.2513 21.3647 19.416 20.3767 19.416C19.3887 19.416 18.4787 19.2513 17.6467 18.922C16.832 18.5753 16.1213 18.1073 15.5147 17.518C14.9253 16.9113 14.4573 16.192 14.1107 15.36C13.7813 14.528 13.6167 13.618 13.6167 12.63C13.6167 11.642 13.7813 10.732 14.1107 9.9C14.4573 9.068 14.9253 8.35733 15.5147 7.768C16.1213 7.16133 16.832 6.69333 17.6467 6.364C18.4787 6.01733 19.3887 5.844 20.3767 5.844ZM20.3767 16.27C20.81 16.27 21.226 16.192 21.6247 16.036C22.0407 15.8627 22.4047 15.62 22.7167 15.308C23.0287 14.996 23.2713 14.6147 23.4447 14.164C23.6353 13.7133 23.7307 13.202 23.7307 12.63C23.7307 12.058 23.6353 11.5467 23.4447 11.096C23.2713 10.6453 23.0287 10.264 22.7167 9.952C22.4047 9.64 22.0407 9.406 21.6247 9.25C21.226 9.07667 20.81 8.99 20.3767 8.99C19.926 8.99 19.5013 9.07667 19.1027 9.25C18.704 9.406 18.3487 9.64 18.0367 9.952C17.7247 10.264 17.4733 10.6453 17.2827 11.096C17.1093 11.5467 17.0227 12.058 17.0227 12.63C17.0227 13.202 17.1093 13.7133 17.2827 14.164C17.4733 14.6147 17.7247 14.996 18.0367 15.308C18.3487 15.62 18.704 15.8627 19.1027 16.036C19.5013 16.192 19.926 16.27 20.3767 16.27ZM35.2011 25.032C34.2998 25.032 33.4938 24.9107 32.7831 24.668C32.0898 24.4427 31.4831 24.1393 30.9631 23.758C30.4431 23.394 30.0098 22.9867 29.6631 22.536C29.3165 22.0853 29.0651 21.6347 28.9091 21.184L32.1591 19.884C32.4018 20.56 32.8005 21.08 33.3551 21.444C33.9098 21.8253 34.5251 22.016 35.2011 22.016C36.2758 22.016 37.1251 21.678 37.7491 21.002C38.3731 20.3433 38.6851 19.416 38.6851 18.22V17.336H38.4771C38.0785 17.8907 37.5498 18.3327 36.8911 18.662C36.2498 18.974 35.4871 19.13 34.6031 19.13C33.8405 19.13 33.0951 18.974 32.3671 18.662C31.6565 18.35 31.0238 17.908 30.4691 17.336C29.9145 16.7467 29.4638 16.0447 29.1171 15.23C28.7705 14.4153 28.5971 13.5053 28.5971 12.5C28.5971 11.4947 28.7705 10.5847 29.1171 9.77C29.4638 8.938 29.9145 8.236 30.4691 7.664C31.0238 7.07467 31.6565 6.624 32.3671 6.312C33.0951 6 33.8405 5.844 34.6031 5.844C35.4871 5.844 36.2498 6.00867 36.8911 6.338C37.5498 6.65 38.0785 7.08333 38.4771 7.638H38.6851V6.26H41.9351V18.09C41.9351 19.1647 41.7705 20.1267 41.4411 20.976C41.1118 21.8427 40.6525 22.5707 40.0631 23.16C39.4738 23.7667 38.7631 24.226 37.9311 24.538C37.1165 24.8673 36.2065 25.032 35.2011 25.032ZM35.3311 16.062C35.7471 16.062 36.1545 15.984 36.5531 15.828C36.9691 15.672 37.3331 15.4467 37.6451 15.152C37.9571 14.84 38.2085 14.4673 38.3991 14.034C38.5898 13.5833 38.6851 13.072 38.6851 12.5C38.6851 11.928 38.5898 11.4167 38.3991 10.966C38.2085 10.5153 37.9571 10.1427 37.6451 9.848C37.3331 9.536 36.9691 9.302 36.5531 9.146C36.1545 8.99 35.7471 8.912 35.3311 8.912C34.9151 8.912 34.5078 8.99 34.1091 9.146C33.7105 9.302 33.3551 9.536 33.0431 9.848C32.7311 10.16 32.4798 10.5413 32.2891 10.992C32.0985 11.4253 32.0031 11.928 32.0031 12.5C32.0031 13.072 32.0985 13.5833 32.2891 14.034C32.4798 14.4673 32.7311 14.84 33.0431 15.152C33.3551 15.4467 33.7105 15.672 34.1091 15.828C34.5078 15.984 34.9151 16.062 35.3311 16.062ZM46.7368 4.414C46.4421 4.414 46.1561 4.362 45.8788 4.258C45.6188 4.13667 45.3848 3.98067 45.1768 3.79C44.9861 3.582 44.8301 3.348 44.7088 3.088C44.6048 2.828 44.5528 2.542 44.5528 2.23C44.5528 1.918 44.6048 1.632 44.7088 1.372C44.8301 1.112 44.9861 0.886666 45.1768 0.695999C45.3848 0.487999 45.6188 0.331999 45.8788 0.227998C46.1561 0.106666 46.4421 0.0459992 46.7368 0.0459992C47.3435 0.0459992 47.8635 0.262666 48.2968 0.695999C48.7301 1.112 48.9468 1.62333 48.9468 2.23C48.9468 2.83667 48.7301 3.35667 48.2968 3.79C47.8635 4.206 47.3435 4.414 46.7368 4.414ZM45.0468 19V6.26H48.4528V19H45.0468ZM54.7653 7.924H54.9733C55.372 7.28267 55.9093 6.78 56.5853 6.416C57.2613 6.03467 58.0327 5.844 58.8993 5.844C59.6967 5.844 60.3987 5.974 61.0053 6.234C61.612 6.494 62.106 6.86667 62.4873 7.352C62.886 7.82 63.1807 8.392 63.3713 9.068C63.5793 9.72667 63.6833 10.4633 63.6833 11.278V19H60.2773V11.694C60.2773 10.7753 60.0693 10.0993 59.6533 9.666C59.2547 9.21533 58.6653 8.99 57.8853 8.99C57.4173 8.99 57.0013 9.094 56.6373 9.302C56.2907 9.49267 55.9873 9.76133 55.7273 10.108C55.4847 10.4373 55.294 10.836 55.1553 11.304C55.034 11.7547 54.9733 12.24 54.9733 12.76V19H51.5673V6.26H54.7653V7.924ZM70.8579 6.26H74.6799L76.7859 14.242H76.9679L79.4899 6.26H82.9999L85.5479 14.242H85.7299L87.8099 6.26H91.5799L87.4979 19H83.8319L81.2839 10.966H81.1019L78.5539 19H74.9399L70.8579 6.26ZM95.0298 4.414C94.7351 4.414 94.4491 4.362 94.1718 4.258C93.9118 4.13667 93.6778 3.98067 93.4698 3.79C93.2791 3.582 93.1231 3.348 93.0018 3.088C92.8978 2.828 92.8458 2.542 92.8458 2.23C92.8458 1.918 92.8978 1.632 93.0018 1.372C93.1231 1.112 93.2791 0.886666 93.4698 0.695999C93.6778 0.487999 93.9118 0.331999 94.1718 0.227998C94.4491 0.106666 94.7351 0.0459992 95.0298 0.0459992C95.6364 0.0459992 96.1564 0.262666 96.5898 0.695999C97.0231 1.112 97.2398 1.62333 97.2398 2.23C97.2398 2.83667 97.0231 3.35667 96.5898 3.79C96.1564 4.206 95.6364 4.414 95.0298 4.414ZM93.3398 19V6.26H96.7458V19H93.3398ZM101.137 9.172H98.9013V6.26H101.137V2.36H104.543V6.26H107.663V9.172H104.543V14.112C104.543 14.4067 104.569 14.684 104.621 14.944C104.691 15.1867 104.812 15.3947 104.985 15.568C105.228 15.8453 105.575 15.984 106.025 15.984C106.32 15.984 106.554 15.958 106.727 15.906C106.901 15.8367 107.065 15.75 107.221 15.646L108.183 18.636C107.785 18.8267 107.351 18.9653 106.883 19.052C106.433 19.156 105.93 19.208 105.375 19.208C104.734 19.208 104.153 19.1127 103.633 18.922C103.131 18.714 102.706 18.4367 102.359 18.09C101.545 17.31 101.137 16.2007 101.137 14.762V9.172ZM110.296 0.383999H113.702V5.61L113.494 7.924H113.702C114.066 7.31733 114.586 6.82333 115.262 6.442C115.955 6.04333 116.727 5.844 117.576 5.844C119.223 5.844 120.436 6.32933 121.216 7.3C122.013 8.27067 122.412 9.59667 122.412 11.278V19H119.006V11.694C119.006 10.81 118.798 10.1427 118.382 9.692C117.966 9.224 117.385 8.99 116.64 8.99C116.172 8.99 115.756 9.094 115.392 9.302C115.028 9.49267 114.716 9.76133 114.456 10.108C114.213 10.4547 114.023 10.862 113.884 11.33C113.763 11.7807 113.702 12.266 113.702 12.786V19H110.296V0.383999Z" fill="#767676"/>
</svg>
