<svg xmlns="http://www.w3.org/2000/svg" width="27.54" height="22.033" viewBox="0 0 27.54 22.033"><path d="M13.77,17.213a6.173,6.173,0,0,1-6.149-5.728L3.107,8a14.342,14.342,0,0,0-1.58,2.392,1.392,1.392,0,0,0,0,1.256A13.8,13.8,0,0,0,13.77,19.278a13.366,13.366,0,0,0,3.352-.45L14.889,17.1a6.2,6.2,0,0,1-1.119.112Zm13.5,2.5-4.757-3.677a14.254,14.254,0,0,0,3.5-4.392,1.392,1.392,0,0,0,0-1.256A13.8,13.8,0,0,0,13.77,2.754,13.26,13.26,0,0,0,7.431,4.376L1.956.145A.689.689,0,0,0,.99.266L.145,1.353a.689.689,0,0,0,.121.966L25.584,21.887a.689.689,0,0,0,.966-.121l.845-1.087a.689.689,0,0,0-.121-.966ZM19.369,13.6l-1.691-1.307a4.078,4.078,0,0,0-5-5.247,2.05,2.05,0,0,1,.4,1.214,2.007,2.007,0,0,1-.066.43L9.848,6.244A6.124,6.124,0,0,1,13.77,4.819a6.193,6.193,0,0,1,6.2,6.2,6.05,6.05,0,0,1-.6,2.587Z" transform="translate(0 0)" fill="#bdc4d0"/></svg>