<svg xmlns="http://www.w3.org/2000/svg" width="36.838" height="36.838" viewBox="0 0 36.838 36.838"><path d="M13.845,32.233H3.837A3.842,3.842,0,0,1,0,28.4V3.837A3.842,3.842,0,0,1,3.837,0H22.256a3.842,3.842,0,0,1,3.837,3.837v9.3a.767.767,0,1,1-1.535,0v-9.3a2.305,2.305,0,0,0-2.3-2.3H3.837a2.305,2.305,0,0,0-2.3,2.3V28.4a2.305,2.305,0,0,0,2.3,2.3H13.845a.767.767,0,1,1,0,1.535Z" transform="translate(0 0)" fill="#bdc4d0"/><path d="M19.117,9.535H3.767A.767.767,0,1,1,3.767,8H19.117a.767.767,0,1,1,0,1.535Z" transform="translate(1.605 4.279)" fill="#bdc4d0"/><path d="M12.977,13.535H3.767a.767.767,0,1,1,0-1.535h9.209a.767.767,0,0,1,0,1.535Z" transform="translate(1.605 6.419)" fill="#bdc4d0"/><path d="M11.442,5.535H3.767A.767.767,0,1,1,3.767,4h7.675a.767.767,0,0,1,0,1.535Z" transform="translate(1.605 2.14)" fill="#bdc4d0"/><path d="M20.977,30.954a9.977,9.977,0,1,1,9.977-9.977A9.988,9.988,0,0,1,20.977,30.954Zm0-18.419a8.442,8.442,0,1,0,8.442,8.442A8.452,8.452,0,0,0,20.977,12.535Z" transform="translate(5.884 5.884)" fill="#bdc4d0"/><path d="M17.767,24.744A.768.768,0,0,1,17,23.977V14.767a.767.767,0,1,1,1.535,0v9.209A.768.768,0,0,1,17.767,24.744Z" transform="translate(9.093 7.489)" fill="#bdc4d0"/><path d="M23.977,18.535H14.767a.767.767,0,1,1,0-1.535h9.209a.767.767,0,0,1,0,1.535Z" transform="translate(7.489 9.093)" fill="#bdc4d0"/></svg>