<svg xmlns="http://www.w3.org/2000/svg" xmlns:xlink="http://www.w3.org/1999/xlink" width="32" height="34" viewBox="0 0 32 34"><defs><filter id="a" x="0" y="0" width="32" height="34" filterUnits="userSpaceOnUse"><feOffset dy="5" input="SourceAlpha"/><feGaussianBlur stdDeviation="3" result="b"/><feFlood flood-color="#1217a4" flood-opacity="0.2"/><feComposite operator="in" in2="b"/><feComposite in="SourceGraphic"/></filter></defs><g transform="matrix(1, 0, 0, 1, 0, 0)" filter="url(#a)"><path d="M7,16a2,2,0,0,0,2-2H5A2,2,0,0,0,7,16Zm6.731-4.678C13.127,10.673,12,9.7,12,6.5A4.935,4.935,0,0,0,8,1.651V1A1,1,0,1,0,6,1v.651A4.935,4.935,0,0,0,2,6.5C2,9.7.873,10.673.269,11.322A.976.976,0,0,0,0,12a1,1,0,0,0,1,1H13a1,1,0,0,0,1-1,.976.976,0,0,0-.269-.678Z" transform="translate(9 4)" fill="#172dce"/></g></svg>