<svg xmlns="http://www.w3.org/2000/svg" width="15.761" height="14.007" viewBox="0 0 15.761 14.007"><path d="M11.016,2.281l2.468,2.468a.268.268,0,0,1,0,.378L7.508,11.1l-2.539.282a.532.532,0,0,1-.588-.588l.282-2.539,5.976-5.976A.268.268,0,0,1,11.016,2.281Zm4.433-.627L14.113.319a1.07,1.07,0,0,0-1.51,0l-.969.969a.268.268,0,0,0,0,.378L14.1,4.133a.268.268,0,0,0,.378,0l.969-.969a1.07,1.07,0,0,0,0-1.51ZM10.507,9.477v2.785H1.751V3.507H8.039a.336.336,0,0,0,.233-.1L9.366,2.316a.328.328,0,0,0-.233-.561H1.313A1.314,1.314,0,0,0,0,3.069V12.7a1.314,1.314,0,0,0,1.313,1.313h9.632A1.314,1.314,0,0,0,12.258,12.7V8.383A.329.329,0,0,0,11.7,8.15L10.6,9.245A.336.336,0,0,0,10.507,9.477Z" transform="translate(0 -0.007)" fill="#bdc4d0"/></svg>