<svg xmlns="http://www.w3.org/2000/svg" width="29.731" height="19.821" viewBox="0 0 29.731 19.821"><path d="M29.552,13.657A16.556,16.556,0,0,0,14.866,4.5,16.558,16.558,0,0,0,.18,13.657a1.67,1.67,0,0,0,0,1.507,16.556,16.556,0,0,0,14.686,9.157,16.558,16.558,0,0,0,14.686-9.157A1.67,1.67,0,0,0,29.552,13.657ZM14.866,21.843A7.433,7.433,0,1,1,22.3,14.411,7.433,7.433,0,0,1,14.866,21.843Zm0-12.388a4.92,4.92,0,0,0-1.306.2A2.47,2.47,0,0,1,10.106,13.1a4.944,4.944,0,1,0,4.76-3.649Z" transform="translate(0 -4.5)" fill="#bdc4d0"/></svg>