<svg xmlns="http://www.w3.org/2000/svg" width="35.266" height="36.526" viewBox="0 0 35.266 36.526"><g transform="translate(-63.583 -1.143)"><g transform="translate(59.583 -1.857)"><path d="M22.263,35.117A11.965,11.965,0,1,1,34.228,23.152,11.979,11.979,0,0,1,22.263,35.117Zm0-22.671A10.706,10.706,0,1,0,32.969,23.152,10.718,10.718,0,0,0,22.263,12.446Zm13.855,0A3.149,3.149,0,1,1,39.266,9.3,3.152,3.152,0,0,1,36.117,12.446Zm0-5.038A1.889,1.889,0,1,0,38.007,9.3,1.892,1.892,0,0,0,36.117,7.408ZM22.263,9.3a3.149,3.149,0,1,1,3.149-3.149A3.152,3.152,0,0,1,22.263,9.3Zm0-5.038a1.889,1.889,0,1,0,1.889,1.889A1.892,1.892,0,0,0,22.263,4.26ZM7.149,13.076A3.149,3.149,0,1,1,10.3,9.927,3.152,3.152,0,0,1,7.149,13.076Zm0-5.038A1.889,1.889,0,1,0,9.038,9.927,1.892,1.892,0,0,0,7.149,8.038Zm.63,31.488a3.149,3.149,0,1,1,3.149-3.149A3.152,3.152,0,0,1,7.779,39.526Zm0-5.038a1.889,1.889,0,1,0,1.889,1.889A1.892,1.892,0,0,0,7.779,34.488Zm27.079,5.038a3.149,3.149,0,1,1,3.149-3.149A3.152,3.152,0,0,1,34.858,39.526Zm0-5.038a1.889,1.889,0,1,0,1.889,1.889A1.892,1.892,0,0,0,34.858,34.488Z" fill="#ea8604"/><path d="M30.408,32.336c-2.6,0-4.408-3.319-4.408-6.3C26,23.655,27.811,21,30.408,21s4.408,2.655,4.408,5.038C34.817,29.017,33.006,32.336,30.408,32.336Zm0-10.076c-1.856,0-3.149,1.991-3.149,3.779,0,2.33,1.375,5.038,3.149,5.038s3.149-2.708,3.149-5.038C33.557,24.251,32.264,22.26,30.408,22.26Z" transform="translate(-8.145 -6.664)" fill="#ea8604"/><path d="M34.855,40.795H22.26A1.276,1.276,0,0,1,21,39.535v-.63a4.6,4.6,0,0,1,2.2-3.691l2.287-1.572L26.2,34.68l-2.4,1.64a3.34,3.34,0,0,0-1.541,2.586v.63h12.6v-.63a3.344,3.344,0,0,0-1.542-2.586l-.077-.045-2.3-1.6.719-1.035,2.261,1.572a4.6,4.6,0,0,1,2.194,3.689v.63A1.276,1.276,0,0,1,34.855,40.795Z" transform="translate(-6.294 -11.345)" fill="#ea8604"/><path d="M0,0H1.26V5.983H0Z" transform="translate(8.693 12.114) rotate(-48.814)" fill="#ea8604"/><path d="M32,12h1.26v3.1H32Z" transform="translate(-10.367 -3.332)" fill="#ea8604"/><path d="M0,0H5.641V1.26H0Z" transform="matrix(0.707, -0.707, 0.707, 0.707, 29.925, 14.599)" fill="#ea8604"/><path d="M0,0H1.26V4.193H0Z" transform="matrix(0.724, -0.69, 0.69, 0.724, 29.694, 31.865)" fill="#ea8604"/><path d="M0,0H5.523V1.26H0Z" transform="translate(9.287 34.065) rotate(-38.997)" fill="#ea8604"/></g></g></svg>