<svg xmlns="http://www.w3.org/2000/svg" width="34.364" height="34.334" viewBox="0 0 34.364 34.334"><g transform="translate(0 -0.001)"><path d="M2.716,23.274A.716.716,0,0,1,2,22.558V9.886a.716.716,0,1,1,1.432,0V22.558A.716.716,0,0,1,2.716,23.274Z" transform="translate(0.864 3.96)" fill="#bdc4d0"/><path d="M27.68,1.488a.809.809,0,0,1-.238-.036H7.906a.716.716,0,1,1,0-1.432H27.68A.716.716,0,0,1,28.4.736.748.748,0,0,1,27.68,1.488Z" transform="translate(3.105 0.008)" fill="#bdc4d0"/><path d="M25.875,7.18H18.716A.716.716,0,0,1,18,6.464V4.317a4.3,4.3,0,1,1,8.591,0V6.464A.716.716,0,0,1,25.875,7.18ZM19.432,5.748h5.727V4.317a2.864,2.864,0,0,0-5.727,0Z" transform="translate(7.773 0.009)" fill="#bdc4d0"/><path d="M22.91,32.6H3.58A3.584,3.584,0,0,1,0,29.018V24.781a.716.716,0,0,1,.716-.716H19.33a.716.716,0,0,1,.716.716V28.3a2.864,2.864,0,1,0,5.727,0V4.737a.716.716,0,1,1,1.432,0V28.3A4.3,4.3,0,0,1,22.91,32.6ZM1.432,25.5V29.02A2.15,2.15,0,0,0,3.58,31.167H19.711a4.277,4.277,0,0,1-1.1-2.864V25.5Z" transform="translate(0 1.736)" fill="#bdc4d0"/><path d="M17.9,18.614a.667.667,0,0,1-.14-.014l-5.233-1.047a.7.7,0,0,1-.365-.2L.643,5.843a2.2,2.2,0,0,1,0-3.107L2.737.643a2.2,2.2,0,0,1,3.106,0L17.358,12.158a.712.712,0,0,1,.2.367L18.6,17.758a.717.717,0,0,1-.7.856Zm-4.881-2.423,3.968.795-.793-3.968L4.831,1.655a.768.768,0,0,0-1.081,0L1.655,3.748a.767.767,0,0,0,0,1.082Z" transform="translate(0 0)" fill="#bdc4d0"/></g></svg>