<svg xmlns="http://www.w3.org/2000/svg" width="29.992" height="39.989" viewBox="0 0 29.992 39.989"><g transform="translate(-64)"><g transform="translate(64)"><g transform="translate(0)"><path d="M88.168,24.855a1.427,1.427,0,0,1,.253-.433,3.57,3.57,0,0,1,1.265-.538,3.639,3.639,0,0,0,2.3-1.388,3.606,3.606,0,0,0,.053-2.658,3.524,3.524,0,0,1-.163-1.39,3.488,3.488,0,0,1,.8-1.066A3.66,3.66,0,0,0,93.992,15,3.66,3.66,0,0,0,92.68,12.61a3.532,3.532,0,0,1-.8-1.065,3.594,3.594,0,0,1,.163-1.391,3.61,3.61,0,0,0-.053-2.659,3.625,3.625,0,0,0-2.3-1.386,3.56,3.56,0,0,1-1.263-.538,3.516,3.516,0,0,1-.538-1.263,3.626,3.626,0,0,0-1.386-2.3,3.59,3.59,0,0,0-2.661-.055,3.585,3.585,0,0,1-1.39.163,3.553,3.553,0,0,1-1.066-.806A3.66,3.66,0,0,0,79,0a3.66,3.66,0,0,0-2.384,1.311,3.576,3.576,0,0,1-1.068.806,3.549,3.549,0,0,1-1.39-.163,3.606,3.606,0,0,0-2.661.053,3.63,3.63,0,0,0-1.385,2.3A3.546,3.546,0,0,1,69.57,5.57a3.57,3.57,0,0,1-1.265.538,3.639,3.639,0,0,0-2.3,1.388,3.606,3.606,0,0,0-.053,2.658,3.524,3.524,0,0,1,.163,1.39,3.488,3.488,0,0,1-.8,1.066A3.665,3.665,0,0,0,64,15a3.664,3.664,0,0,0,1.311,2.386,3.532,3.532,0,0,1,.8,1.065,3.594,3.594,0,0,1-.163,1.391,3.61,3.61,0,0,0,.053,2.659,3.625,3.625,0,0,0,2.3,1.386,3.56,3.56,0,0,1,1.263.538,1.418,1.418,0,0,1,.253.432L64.063,38.838a.832.832,0,0,0,.77,1.151.811.811,0,0,0,.373-.09l6.232-3.116,4.6,3.064a.848.848,0,0,0,.718.1.829.829,0,0,0,.523-.5L79.1,34.6,80.7,39.419a.841.841,0,0,0,.522.525.831.831,0,0,0,.731-.095l4.6-3.064L92.785,39.9a.831.831,0,0,0,1.141-1.061ZM78.216,32.2l-2.131,5.682-4.126-2.749a.833.833,0,0,0-.835-.052l-4.675,2.338,4.235-10.289a2.274,2.274,0,0,0,.808.856,3.591,3.591,0,0,0,2.661.055,3.517,3.517,0,0,1,1.39-.163,3.553,3.553,0,0,1,1.066.806c.235.22.487.442.75.646a.917.917,0,0,0,.012.095l.9,2.691A.924.924,0,0,0,78.216,32.2Zm.778-3.871c-.328,0-.815-.457-1.245-.86a4.409,4.409,0,0,0-1.776-1.2,2.621,2.621,0,0,0-.68-.085,6.853,6.853,0,0,0-1.515.235,2.789,2.789,0,0,1-1.45.127c-.268-.155-.458-.783-.626-1.338a4.472,4.472,0,0,0-.955-1.959,4.489,4.489,0,0,0-1.959-.955c-.555-.167-1.183-.357-1.34-.625a2.846,2.846,0,0,1,.128-1.45,4.576,4.576,0,0,0,.15-2.2,4.455,4.455,0,0,0-1.2-1.776c-.4-.43-.861-.916-.861-1.245s.458-.815.861-1.245a4.426,4.426,0,0,0,1.2-1.776,4.57,4.57,0,0,0-.15-2.2,2.841,2.841,0,0,1-.128-1.448c.157-.268.785-.458,1.341-.626A4.5,4.5,0,0,0,70.75,6.75,4.519,4.519,0,0,0,71.7,4.792c.168-.555.358-1.185.625-1.34a2.855,2.855,0,0,1,1.448.128,4.543,4.543,0,0,0,2.2.15,4.444,4.444,0,0,0,1.778-1.2c.428-.4.915-.86,1.243-.86s.815.457,1.245.86a4.409,4.409,0,0,0,1.776,1.2,4.536,4.536,0,0,0,2.194-.15,2.806,2.806,0,0,1,1.45-.127c.268.155.458.783.626,1.338a4.472,4.472,0,0,0,.955,1.959,4.489,4.489,0,0,0,1.959.955c.555.167,1.183.357,1.34.625a2.846,2.846,0,0,1-.128,1.45,4.576,4.576,0,0,0-.15,2.2,4.456,4.456,0,0,0,1.2,1.776c.4.43.861.916.861,1.245s-.458.815-.861,1.245a4.426,4.426,0,0,0-1.2,1.776,4.57,4.57,0,0,0,.15,2.2,2.841,2.841,0,0,1,.128,1.448c-.157.268-.785.458-1.341.626a4.5,4.5,0,0,0-1.959.955,4.519,4.519,0,0,0-.955,1.958c-.168.555-.358,1.185-.625,1.34a2.84,2.84,0,0,1-1.448-.128,4.543,4.543,0,0,0-2.2-.15,4.444,4.444,0,0,0-1.778,1.2C79.809,27.869,79.322,28.326,78.994,28.326Zm7.871,6.753a.828.828,0,0,0-.835.052L81.94,37.858,79.3,29.94a4.112,4.112,0,0,0,2.079-1.26,3.576,3.576,0,0,1,1.068-.806,3.577,3.577,0,0,1,1.39.163,3.606,3.606,0,0,0,2.661-.053,2.27,2.27,0,0,0,.806-.856l4.235,10.289Z" transform="translate(-64)" fill="#bdc4d0"/><path d="M147.995,74a10,10,0,1,0-10,10A10.007,10.007,0,0,0,147.995,74Zm-10,8.331A8.331,8.331,0,1,1,146.328,74,8.341,8.341,0,0,1,138,82.328Z" transform="translate(-123.001 -59.001)" fill="#bdc4d0"/></g></g></g></svg>