<svg xmlns="http://www.w3.org/2000/svg" width="43.115" height="32.341" viewBox="0 0 43.115 32.341"><g transform="translate(0 -63.969)"><g transform="translate(0 63.969)"><path d="M26.508,87.958l-4.951-1.236-.365-1.468a9.406,9.406,0,0,0,2.517-4.991,2.23,2.23,0,0,0,1.462-1.822l.332-2.655A2.226,2.226,0,0,0,24.244,73.5l.11-2.246.437-.438c.807-.857,1.479-2.321.1-4.427-1.04-1.592-2.8-2.4-5.224-2.4a9,9,0,0,0-5.106,1.331c-5.832.147-6.59,3.029-6.59,5.542,0,.571.124,1.768.219,2.592a2.224,2.224,0,0,0-1.353,2.332l.332,2.655a2.225,2.225,0,0,0,1.622,1.872,9.461,9.461,0,0,0,2.389,4.82l-.4,1.588L5.83,87.961A7.684,7.684,0,0,0,0,95.428a.9.9,0,0,0,.9.9l30.541,0a.908.908,0,0,0,.9-.905A7.689,7.689,0,0,0,26.508,87.958ZM1.867,94.529a5.9,5.9,0,0,1,4.4-4.829l5.474-1.367a.9.9,0,0,0,.654-.654l.65-2.6a.9.9,0,0,0-.259-.873,7.544,7.544,0,0,1-2.3-4.779.9.9,0,0,0-.895-.826H9.376a.429.429,0,0,1-.426-.376l-.332-2.659a.432.432,0,0,1,.1-.338.56.56,0,0,1,.46-.146.9.9,0,0,0,.893-1.01c-.086-.675-.309-2.571-.309-3.207,0-1.649,0-3.7,5.086-3.749a.9.9,0,0,0,.514-.167,7.042,7.042,0,0,1,4.3-1.161c1.78,0,3.033.534,3.722,1.586.787,1.2.49,1.793.115,2.192l-.663.665a.9.9,0,0,0-.262.591l-.162,3.324a.9.9,0,0,0,.886.941.424.424,0,0,1,.32.147.415.415,0,0,1,.1.334l-.332,2.657a.45.45,0,0,1-.49.376.9.9,0,0,0-.895.828A7.493,7.493,0,0,1,19.593,84.3a.9.9,0,0,0-.271.886l.623,2.5a.9.9,0,0,0,.654.654L26.073,89.7a5.891,5.891,0,0,1,4.4,4.829Z" transform="translate(0 -63.988)" fill="#bdc4d0"/><path d="M325.263,87.937,320.312,86.7l-.365-1.468a9.406,9.406,0,0,0,2.517-4.991,2.23,2.23,0,0,0,1.462-1.822l.332-2.655A2.226,2.226,0,0,0,323,73.478l.11-2.246.437-.438c.808-.859,1.479-2.323.1-4.427-1.042-1.592-2.8-2.4-5.226-2.4a10.267,10.267,0,0,0-3.351.487.9.9,0,0,0,.577,1.7,8.585,8.585,0,0,1,2.776-.392c1.782,0,3.033.534,3.722,1.586.787,1.2.49,1.793.115,2.192l-.663.665a.9.9,0,0,0-.262.591l-.162,3.324a.9.9,0,0,0,.886.941.424.424,0,0,1,.32.147.415.415,0,0,1,.1.334l-.332,2.657a.45.45,0,0,1-.49.376.9.9,0,0,0-.895.828,7.493,7.493,0,0,1-2.411,4.874.9.9,0,0,0-.271.886l.623,2.5a.9.9,0,0,0,.654.654l5.474,1.367a5.891,5.891,0,0,1,4.4,4.829h-6.221v1.8l7.184-.007a.9.9,0,0,0,.9-.9A7.682,7.682,0,0,0,325.263,87.937Z" transform="translate(-287.976 -63.969)" fill="#bdc4d0"/></g></g></svg>