<svg width="63" height="40" viewBox="0 0 63 40" fill="none" xmlns="http://www.w3.org/2000/svg">
<path fill-rule="evenodd" clip-rule="evenodd" d="M40.948 38.8054C40.6861 38.5442 40.4783 38.2338 40.3365 37.8921C40.1947 37.5504 40.1217 37.1841 40.1217 36.8142C40.1217 36.4442 40.1947 36.0779 40.3365 35.7363C40.4783 35.3946 40.6861 35.0842 40.948 34.8229L55.8373 19.9392L40.948 5.05547C40.4199 4.52736 40.1232 3.81108 40.1232 3.06422C40.1232 2.31736 40.4199 1.60109 40.948 1.07297C41.4761 0.544861 42.1924 0.248173 42.9392 0.248173C43.6861 0.248173 44.4024 0.544861 44.9305 1.07297L61.8055 17.948C62.0674 18.2092 62.2752 18.5196 62.417 18.8613C62.5588 19.203 62.6317 19.5693 62.6317 19.9392C62.6317 20.3091 62.5588 20.6755 62.417 21.0171C62.2752 21.3588 62.0674 21.6692 61.8055 21.9305L44.9305 38.8054C44.6692 39.0674 44.3589 39.2752 44.0172 39.4169C43.6755 39.5587 43.3092 39.6317 42.9392 39.6317C42.5693 39.6317 42.203 39.5587 41.8613 39.4169C41.5196 39.2752 41.2092 39.0674 40.948 38.8054Z" fill="#F19E34"/>
<path fill-rule="evenodd" clip-rule="evenodd" d="M0.751831 19.9392C0.751831 19.1933 1.04815 18.4779 1.57559 17.9505C2.10304 17.423 2.81841 17.1267 3.56433 17.1267L54.1893 17.1267C54.9353 17.1267 55.6506 17.423 56.1781 17.9505C56.7055 18.4779 57.0018 19.1933 57.0018 19.9392C57.0018 20.6851 56.7055 21.4005 56.1781 21.9279C55.6506 22.4554 54.9353 22.7517 54.1893 22.7517L3.56433 22.7517C2.81841 22.7517 2.10304 22.4554 1.57559 21.9279C1.04815 21.4005 0.751831 20.6851 0.751831 19.9392Z" fill="#F19E34"/>
</svg>
